<svg xmlns="http://www.w3.org/2000/svg" viewBox="0 0 200 200" fill="none">
  <!-- Background circle -->
  <circle cx="100" cy="100" r="95" fill="#f97316" stroke="#ea580c" stroke-width="2"/>
  
  <!-- Chef hat -->
  <path d="M70 65c0-16.569 13.431-30 30-30s30 13.431 30 30c8.284 0 15 6.716 15 15s-6.716 15-15 15H70c-8.284 0-15-6.716-15-15s6.716-15 15-15z" fill="white"/>
  <path d="M75 95h50v15c0 2.761-2.239 5-5 5H80c-2.761 0-5-2.239-5-5V95z" fill="white"/>
  <path d="M85 95v8m10-8v8m10-8v8m10-8v8" stroke="#f97316" stroke-width="2" stroke-linecap="round"/>
  
  <!-- Cooking pot -->
  <ellipse cx="100" cy="140" rx="35" ry="8" fill="#374151"/>
  <rect x="65" y="125" width="70" height="30" rx="5" fill="#6b7280"/>
  <rect x="70" y="130" width="60" height="20" rx="3" fill="#9ca3af"/>
  
  <!-- Steam/smoke -->
  <path d="M80 120c0-3 2-5 4-3s2 5 0 8s-4-2-4-5z" fill="white" opacity="0.7"/>
  <path d="M100 115c0-4 3-6 5-3s2 6 0 9s-5-2-5-6z" fill="white" opacity="0.7"/>
  <path d="M120 120c0-3 2-5 4-3s2 5 0 8s-4-2-4-5z" fill="white" opacity="0.7"/>
  
  <!-- Pot handles -->
  <rect x="55" y="135" width="8" height="4" rx="2" fill="#374151"/>
  <rect x="137" y="135" width="8" height="4" rx="2" fill="#374151"/>
  
  <!-- Spoon -->
  <circle cx="140" cy="160" r="4" fill="#fbbf24"/>
  <rect x="138" y="164" width="4" height="20" rx="2" fill="#f59e0b"/>
  
  <!-- Fork -->
  <rect x="58" y="160" width="4" height="20" rx="2" fill="#10b981"/>
  <rect x="57" y="158" width="2" height="6" rx="1" fill="#10b981"/>
  <rect x="60" y="158" width="2" height="6" rx="1" fill="#10b981"/>
  <rect x="63" y="158" width="2" height="6" rx="1" fill="#10b981"/>
</svg>