<svg xmlns="http://www.w3.org/2000/svg" viewBox="0 0 32 32" fill="none">
  <!-- Background circle -->
  <circle cx="16" cy="16" r="15" fill="#f97316" stroke="#ea580c" stroke-width="0.5"/>
  
  <!-- Chef hat (simplified) -->
  <path d="M11 10.5c0-2.76 2.24-5 5-5s5 2.24 5 5c1.38 0 2.5 1.12 2.5 2.5s-1.12 2.5-2.5 2.5H11c-1.38 0-2.5-1.12-2.5-2.5s1.12-2.5 2.5-2.5z" fill="white"/>
  <path d="M12 15h8v2.5c0 0.55-0.45 1-1 1h-6c-0.55 0-1-0.45-1-1V15z" fill="white"/>
  
  <!-- Cooking pot (simplified) -->
  <ellipse cx="16" cy="22" rx="6" ry="1.5" fill="#374151"/>
  <rect x="10" y="20" width="12" height="5" rx="1" fill="#6b7280"/>
  <rect x="11" y="21" width="10" height="3" rx="0.5" fill="#9ca3af"/>
  
  <!-- Steam (simplified) -->
  <circle cx="13" cy="19" r="0.5" fill="white" opacity="0.7"/>
  <circle cx="16" cy="18.5" r="0.5" fill="white" opacity="0.7"/>
  <circle cx="19" cy="19" r="0.5" fill="white" opacity="0.7"/>
  
  <!-- Pot handles -->
  <rect x="8.5" y="21.5" width="1.5" height="1" rx="0.5" fill="#374151"/>
  <rect x="22" y="21.5" width="1.5" height="1" rx="0.5" fill="#374151"/>
</svg>